{
	"asset":{
		"generator":"Khronos glTF Blender I/O v3.6.27",
		"version":"2.0"
	},
	"scene":0,
	"scenes":[
		{
			"name":"Scene",
			"nodes":[
				1,
				2
			]
		}
	],
	"nodes":[
		{
			"mesh":0,
			"name":"biandiangui",
			"rotation":[
				0,
				0,
				-0.7071068286895752,
				0.7071067094802856
			],
			"scale":[
				4.293813705444336,
				4.293814659118652,
				4.293816089630127
			],
			"translation":[
				21.860498428344727,
				2.8041322231292725,
				-61.19361877441406
			]
		},
		{
			"children":[
				0
			],
			"mesh":1,
			"name":"biandiangui.001",
			"rotation":[
				0.70710688829422,
				0,
				0,
				0.7071066498756409
			],
			"scale":[
				0.02216412127017975,
				0.02216412127017975,
				0.02216412127017975
			]
		},
		{
			"mesh":2,
			"name":"dizuo",
			"rotation":[
				0.70710688829422,
				0,
				0,
				0.7071066498756409
			],
			"scale":[
				0.02216412127017975,
				0.02216412127017975,
				0.02216412127017975
			]
		}
	],
	"materials":[
		{
			"doubleSided":true,
			"name":"\u6d41\u5149.007",
			"pbrMetallicRoughness":{
				"baseColorFactor":[
					0.02634875662624836,
					0.02634875662624836,
					0.02634875662624836,
					1
				],
				"metallicFactor":0,
				"roughnessFactor":0.5
			}
		},
		{
			"doubleSided":true,
			"name":"\u5e95\u5ea7.001",
			"pbrMetallicRoughness":{
				"metallicFactor":0.800000011920929,
				"roughnessFactor":0.20000000298023224
			}
		},
		{
			"doubleSided":true,
			"name":"\u65b0\u91d1\u5c5e\u8272.001",
			"pbrMetallicRoughness":{
				"baseColorFactor":[
					0.7464454174041748,
					0.776962161064148,
					0.82904452085495,
					1
				],
				"roughnessFactor":0.5
			}
		},
		{
			"doubleSided":true,
			"name":"\u6df1\u7070",
			"pbrMetallicRoughness":{
				"baseColorFactor":[
					0.045202117413282394,
					0.05538475513458252,
					0.0713464766740799,
					1
				],
				"metallicFactor":0,
				"roughnessFactor":0.2454545497894287
			}
		},
		{
			"doubleSided":true,
			"name":"\u6df1\u7070.001",
			"pbrMetallicRoughness":{
				"baseColorFactor":[
					0.36648961901664734,
					0.3963989317417145,
					0.4603675901889801,
					1
				],
				"metallicFactor":0,
				"roughnessFactor":0.5
			}
		}
	],
	"meshes":[
		{
			"name":"\u7f51\u683c.020",
			"primitives":[
				{
					"attributes":{
						"POSITION":0,
						"NORMAL":1,
						"TEXCOORD_0":2
					},
					"indices":3,
					"material":0
				}
			]
		},
		{
			"name":"biandiangui",
			"primitives":[
				{
					"attributes":{
						"POSITION":4,
						"NORMAL":5,
						"TEXCOORD_0":6,
						"TEXCOORD_1":7
					},
					"indices":8,
					"material":1
				},
				{
					"attributes":{
						"POSITION":9,
						"NORMAL":10,
						"TEXCOORD_0":11,
						"TEXCOORD_1":12
					},
					"indices":13,
					"material":2
				},
				{
					"attributes":{
						"POSITION":14,
						"NORMAL":15,
						"TEXCOORD_0":16,
						"TEXCOORD_1":17
					},
					"indices":18,
					"material":3
				},
				{
					"attributes":{
						"POSITION":19,
						"NORMAL":20,
						"TEXCOORD_0":21,
						"TEXCOORD_1":22
					},
					"indices":23,
					"material":4
				}
			]
		},
		{
			"name":"dizuo",
			"primitives":[
				{
					"attributes":{
						"POSITION":24,
						"NORMAL":25,
						"TEXCOORD_0":26
					},
					"indices":27,
					"material":1
				}
			]
		}
	],
	"accessors":[
		{
			"bufferView":0,
			"componentType":5126,
			"count":3357,
			"max":[
				2.837070941925049,
				0.2710874676704407,
				10.565580368041992
			],
			"min":[
				-5.925047397613525,
				-0.12641553580760956,
				-10.69762134552002
			],
			"type":"VEC3"
		},
		{
			"bufferView":1,
			"componentType":5126,
			"count":3357,
			"type":"VEC3"
		},
		{
			"bufferView":2,
			"componentType":5126,
			"count":3357,
			"type":"VEC2"
		},
		{
			"bufferView":3,
			"componentType":5123,
			"count":5760,
			"type":"SCALAR"
		},
		{
			"bufferView":4,
			"componentType":5126,
			"count":3157,
			"max":[
				28.615633010864258,
				34.039737701416016,
				-14.374750137329102
			],
			"min":[
				-18.12006187438965,
				-34.84855651855469,
				-117.71076202392578
			],
			"type":"VEC3"
		},
		{
			"bufferView":5,
			"componentType":5126,
			"count":3157,
			"type":"VEC3"
		},
		{
			"bufferView":6,
			"componentType":5126,
			"count":3157,
			"type":"VEC2"
		},
		{
			"bufferView":7,
			"componentType":5126,
			"count":3157,
			"type":"VEC2"
		},
		{
			"bufferView":8,
			"componentType":5123,
			"count":6228,
			"type":"SCALAR"
		},
		{
			"bufferView":9,
			"componentType":5126,
			"count":128,
			"max":[
				21.836042404174805,
				32.987857818603516,
				-11.947671890258789
			],
			"min":[
				-16.38825798034668,
				-34.63913345336914,
				-115.20000457763672
			],
			"type":"VEC3"
		},
		{
			"bufferView":10,
			"componentType":5126,
			"count":128,
			"type":"VEC3"
		},
		{
			"bufferView":11,
			"componentType":5126,
			"count":128,
			"type":"VEC2"
		},
		{
			"bufferView":12,
			"componentType":5126,
			"count":128,
			"type":"VEC2"
		},
		{
			"bufferView":13,
			"componentType":5123,
			"count":252,
			"type":"SCALAR"
		},
		{
			"bufferView":14,
			"componentType":5126,
			"count":158788,
			"max":[
				22.057382583618164,
				31.835527420043945,
				-12.53233528137207
			],
			"min":[
				-16.063236236572266,
				-33.30939483642578,
				-109.7160873413086
			],
			"type":"VEC3"
		},
		{
			"bufferView":15,
			"componentType":5126,
			"count":158788,
			"type":"VEC3"
		},
		{
			"bufferView":16,
			"componentType":5126,
			"count":158788,
			"type":"VEC2"
		},
		{
			"bufferView":17,
			"componentType":5126,
			"count":158788,
			"type":"VEC2"
		},
		{
			"bufferView":18,
			"componentType":5125,
			"count":663072,
			"type":"SCALAR"
		},
		{
			"bufferView":19,
			"componentType":5126,
			"count":21370,
			"max":[
				22.790681838989258,
				34.32635498046875,
				-20.912586212158203
			],
			"min":[
				22.140493392944336,
				-5.838611125946045,
				-101.93659973144531
			],
			"type":"VEC3"
		},
		{
			"bufferView":20,
			"componentType":5126,
			"count":21370,
			"type":"VEC3"
		},
		{
			"bufferView":21,
			"componentType":5126,
			"count":21370,
			"type":"VEC2"
		},
		{
			"bufferView":22,
			"componentType":5126,
			"count":21370,
			"type":"VEC2"
		},
		{
			"bufferView":23,
			"componentType":5123,
			"count":111720,
			"type":"SCALAR"
		},
		{
			"bufferView":24,
			"componentType":5126,
			"count":577,
			"max":[
				51.91872024536133,
				50.87568283081055,
				0.052326202392578125
			],
			"min":[
				-51.91872024536133,
				-50.87555694580078,
				-11.947671890258789
			],
			"type":"VEC3"
		},
		{
			"bufferView":25,
			"componentType":5126,
			"count":577,
			"type":"VEC3"
		},
		{
			"bufferView":26,
			"componentType":5126,
			"count":577,
			"type":"VEC2"
		},
		{
			"bufferView":27,
			"componentType":5123,
			"count":1188,
			"type":"SCALAR"
		}
	],
	"bufferViews":[
		{
			"buffer":0,
			"byteLength":40284,
			"byteOffset":0,
			"target":34962
		},
		{
			"buffer":0,
			"byteLength":40284,
			"byteOffset":40284,
			"target":34962
		},
		{
			"buffer":0,
			"byteLength":26856,
			"byteOffset":80568,
			"target":34962
		},
		{
			"buffer":0,
			"byteLength":11520,
			"byteOffset":107424,
			"target":34963
		},
		{
			"buffer":0,
			"byteLength":37884,
			"byteOffset":118944,
			"target":34962
		},
		{
			"buffer":0,
			"byteLength":37884,
			"byteOffset":156828,
			"target":34962
		},
		{
			"buffer":0,
			"byteLength":25256,
			"byteOffset":194712,
			"target":34962
		},
		{
			"buffer":0,
			"byteLength":25256,
			"byteOffset":219968,
			"target":34962
		},
		{
			"buffer":0,
			"byteLength":12456,
			"byteOffset":245224,
			"target":34963
		},
		{
			"buffer":0,
			"byteLength":1536,
			"byteOffset":257680,
			"target":34962
		},
		{
			"buffer":0,
			"byteLength":1536,
			"byteOffset":259216,
			"target":34962
		},
		{
			"buffer":0,
			"byteLength":1024,
			"byteOffset":260752,
			"target":34962
		},
		{
			"buffer":0,
			"byteLength":1024,
			"byteOffset":261776,
			"target":34962
		},
		{
			"buffer":0,
			"byteLength":504,
			"byteOffset":262800,
			"target":34963
		},
		{
			"buffer":0,
			"byteLength":1905456,
			"byteOffset":263304,
			"target":34962
		},
		{
			"buffer":0,
			"byteLength":1905456,
			"byteOffset":2168760,
			"target":34962
		},
		{
			"buffer":0,
			"byteLength":1270304,
			"byteOffset":4074216,
			"target":34962
		},
		{
			"buffer":0,
			"byteLength":1270304,
			"byteOffset":5344520,
			"target":34962
		},
		{
			"buffer":0,
			"byteLength":2652288,
			"byteOffset":6614824,
			"target":34963
		},
		{
			"buffer":0,
			"byteLength":256440,
			"byteOffset":9267112,
			"target":34962
		},
		{
			"buffer":0,
			"byteLength":256440,
			"byteOffset":9523552,
			"target":34962
		},
		{
			"buffer":0,
			"byteLength":170960,
			"byteOffset":9779992,
			"target":34962
		},
		{
			"buffer":0,
			"byteLength":170960,
			"byteOffset":9950952,
			"target":34962
		},
		{
			"buffer":0,
			"byteLength":223440,
			"byteOffset":10121912,
			"target":34963
		},
		{
			"buffer":0,
			"byteLength":6924,
			"byteOffset":10345352,
			"target":34962
		},
		{
			"buffer":0,
			"byteLength":6924,
			"byteOffset":10352276,
			"target":34962
		},
		{
			"buffer":0,
			"byteLength":4616,
			"byteOffset":10359200,
			"target":34962
		},
		{
			"buffer":0,
			"byteLength":2376,
			"byteOffset":10363816,
			"target":34963
		}
	],
	"buffers":[
		{
			"byteLength":10366192,
			"uri":"index.bin"
		}
	]
}
